<svg xmlns:xlink="http://www.w3.org/1999/xlink" xmlns="http://www.w3.org/2000/svg" width="96" height="96">

 <g>
  <title>background</title>
  <rect fill="none" id="canvas_background" height="402" width="582" y="-1" x="-1"/>
 </g>
 <g>
  <title>Layer 1</title>
  <path fill="white" id="svg_1" d="m76,0l-56,0c-6.63,0 -12,5.37 -12,12l0,72c0,6.63 5.37,12 12,12l56,0c6.63,0 12,-5.37 12,-12l0,-72c0,-6.63 -5.37,-12 -12,-12zm4,84c0,2.21 -1.79,4 -4,4l-56,0c-2.21,0 -4,-1.79 -4,-4l0,-72c0,-2.21 1.79,-4 4,-4l56,0c2.21,0 4,1.79 4,4l0,72z"/>
  <path fill="white" stroke="null" id="svg_5" d="m52,24c0,2.209 -1.791,4 -4,4l-16,0c-2.209,0 -4,-1.791 -4,-4l0,0c0,-2.209 1.791,-4 4,-4l16,0c2.209,0 4,1.791 4,4l0,0z"/>
  <path fill="white" stroke="null" id="svg_6" d="m52,24c0,2.209 -1.791,4 -4,4l-16,0c-2.209,0 -4,-1.791 -4,-4l0,0c0,-2.209 1.791,-4 4,-4l16,0c2.209,0 4,1.791 4,4l0,0z"/>
  <path fill="white" stroke="null" id="svg_7" d="m52.414366,54.524953c0,2.209 -1.791,4 -4,4l-16,0c-2.209,0 -4,-1.791 -4,-4l0,0c0,-2.209 1.791,-4 4,-4l16,0c2.209,0 4,1.791 4,4l0,0z"/>
  <path fill="white" stroke="null" id="svg_8" d="m51.861882,70.132738c0,2.209 -1.791,4 -4,4l-16,0c-2.209,0 -4,-1.791 -4,-4l0,0c0,-2.209 1.791,-4 4,-4l16,0c2.209,0 4,1.791 4,4l0,0z"/>
  <text font-weight="bold" stroke="white" transform="matrix(61.76406770342054,0,0,72.20708246390717,-4109.605072654634,-5243.3305222445515) " xml:space="preserve" text-anchor="start" font-family="'Courier New', Courier, monospace" font-size="1" id="svg_11" y="73.633674" x="67.313619" stroke- fill="white">!</text>
  <path fill="white" stroke="null" id="svg_14" d="m52.276244,38.77905c0,2.209 -1.791,4 -4,4l-16,0c-2.209,0 -4,-1.791 -4,-4l0,0c0,-2.209 1.791,-4 4,-4l16,0c2.209,0 4,1.791 4,4l0,0z"/>
 </g>
</svg>