<svg xmlns:xlink="http://www.w3.org/1999/xlink" xmlns="http://www.w3.org/2000/svg" id="Wallet" width="67.747" height="70" viewBox="0 0 67.747 70">
  <path id="Path_119" data-name="Path 119" d="M85.023,175.275H30.163a2.452,2.452,0,0,0-2.452,2.452v6.587H87.475v-6.587A2.452,2.452,0,0,0,85.023,175.275Z" transform="translate(-25.049 -151.312)" fill="#ffb125"/>
  <path id="Path_120" data-name="Path 120" d="M81.954,44.024,76.985,94.318a2.3,2.3,0,0,1-2.514,2.062L49.3,93.893a2.3,2.3,0,0,1-2.062-2.514l4.968-50.294a2.3,2.3,0,0,1,2.514-2.062L79.892,41.51A2.3,2.3,0,0,1,81.954,44.024Z" transform="translate(-41.896 -33.679)" fill="#b6fa4c"/>
  <path id="Path_121" data-name="Path 121" d="M108.519,41.509,83.346,39.023a2.3,2.3,0,0,0-2.514,2.062L80.387,45.6a2.286,2.286,0,0,1,1.264-.239l25.173,2.487a2.3,2.3,0,0,1,2.062,2.514L104.363,96.14a2.3,2.3,0,0,0,1.249-1.823l4.968-50.294A2.3,2.3,0,0,0,108.519,41.509Z" transform="translate(-70.523 -33.678)" fill="#a8e83a"/>
  <path id="Path_122" data-name="Path 122" d="M80.234,78,76.61,114.7a1.389,1.389,0,0,0,.643,1.316,6.741,6.741,0,0,1,2.715,3.279,1.387,1.387,0,0,0,1.16.874l13.049,1.289a1.387,1.387,0,0,0,1.308-.631,6.741,6.741,0,0,1,3.3-2.684,1.389,1.389,0,0,0,.888-1.165L103.3,80.284a1.389,1.389,0,0,0-.643-1.316,6.741,6.741,0,0,1-2.715-3.279,1.388,1.388,0,0,0-1.16-.874L85.735,73.525a1.387,1.387,0,0,0-1.308.631,6.741,6.741,0,0,1-3.3,2.684A1.389,1.389,0,0,0,80.234,78Z" transform="translate(-67.257 -63.467)" fill="#7d0"/>
  <path id="Path_123" data-name="Path 123" d="M124.716,78.967A6.741,6.741,0,0,1,122,75.688a1.387,1.387,0,0,0-1.16-.874l-13.049-1.289a1.387,1.387,0,0,0-1.308.631,6.741,6.741,0,0,1-3.3,2.684A1.389,1.389,0,0,0,102.292,78l-.138,1.4,16.908,1.618a1.387,1.387,0,0,1,1.16.874,6.741,6.741,0,0,0,2.715,3.279,1.389,1.389,0,0,1,.643,1.316l-3.143,31.822c.135-.061.271-.119.41-.172a1.389,1.389,0,0,0,.888-1.165l3.624-36.691A1.389,1.389,0,0,0,124.716,78.967Z" transform="translate(-89.314 -63.467)" fill="#73cc00"/>
  <path id="Path_124" data-name="Path 124" d="M119.139,17.838,90.679,59.6a2.3,2.3,0,0,1-3.194.605l-20.9-14.245a2.3,2.3,0,0,1-.605-3.194L94.437,1A2.3,2.3,0,0,1,97.631.4l20.9,14.245A2.3,2.3,0,0,1,119.139,17.838Z" transform="translate(-57.738 0)" fill="#b6fa4c"/>
  <path id="Path_125" data-name="Path 125" d="M260.71,14.644,239.808.4A2.3,2.3,0,0,0,236.613,1l-2.434,3.572a2.3,2.3,0,0,1,.609.294l20.9,14.245a2.3,2.3,0,0,1,.605,3.194L230.27,60.5a2.3,2.3,0,0,0,2.585-.9l28.461-41.763A2.3,2.3,0,0,0,260.71,14.644Z" transform="translate(-199.914)" fill="#a8e83a"/>
  <path id="Path_126" data-name="Path 126" d="M136.164,52.759,115.4,83.226a1.389,1.389,0,0,0-.066,1.463,6.74,6.74,0,0,1,.812,4.179,1.387,1.387,0,0,0,.6,1.323l10.836,7.384a1.387,1.387,0,0,0,1.45.073,6.742,6.742,0,0,1,4.186-.773,1.389,1.389,0,0,0,1.338-.6l20.763-30.467a1.389,1.389,0,0,0,.066-1.463,6.74,6.74,0,0,1-.812-4.179,1.387,1.387,0,0,0-.6-1.323l-10.836-7.385a1.387,1.387,0,0,0-1.45-.073,6.742,6.742,0,0,1-4.186.773A1.388,1.388,0,0,0,136.164,52.759Z" transform="translate(-100.54 -44.216)" fill="#7d0"/>
  <path id="Path_127" data-name="Path 127" d="M261.683,64.349a6.741,6.741,0,0,1-.812-4.179,1.388,1.388,0,0,0-.6-1.323l-10.836-7.384a1.387,1.387,0,0,0-1.45-.073,6.741,6.741,0,0,1-4.186.773,1.389,1.389,0,0,0-1.338.6l-.865,1.27,13.543,9.129a1.387,1.387,0,0,1,.6,1.323,6.742,6.742,0,0,0,.812,4.179,1.389,1.389,0,0,1-.066,1.463L238.29,96.82a6.711,6.711,0,0,1,1.226.057,1.389,1.389,0,0,0,1.338-.6l20.763-30.467A1.388,1.388,0,0,0,261.683,64.349Z" transform="translate(-206.838 -44.216)" fill="#73cc00"/>
  <circle id="Ellipse_28" data-name="Ellipse 28" cx="7.436" cy="7.436" r="7.436" transform="translate(30.563 20.044)" fill="#b6fa4c"/>
  <path id="Path_128" data-name="Path 128" d="M69.065,246.343H11.778a3.537,3.537,0,0,1-3.537-3.537v-35a3.537,3.537,0,0,1,3.537-3.537H69.065a3.537,3.537,0,0,1,3.537,3.537v35A3.537,3.537,0,0,1,69.065,246.343Z" transform="translate(-8.241 -176.343)" fill="#ffb125"/>
  <path id="Path_129" data-name="Path 129" d="M412.5,204.271h-6.434a3.537,3.537,0,0,1,3.537,3.537v35a3.537,3.537,0,0,1-3.537,3.537H412.5a3.537,3.537,0,0,0,3.537-3.537v-35A3.537,3.537,0,0,0,412.5,204.271Z" transform="translate(-351.672 -176.343)" fill="#ff901d"/>
  <path id="Path_130" data-name="Path 130" d="M370.286,308.688H357.392a6.76,6.76,0,0,0-6.76,6.76h0a6.76,6.76,0,0,0,6.76,6.76h12.894a1.281,1.281,0,0,0,1.281-1.281V309.969A1.281,1.281,0,0,0,370.286,308.688Z" transform="translate(-303.821 -266.485)" fill="#ff6d3a"/>
  <path id="Path_131" data-name="Path 131" d="M370.285,308.688h-6.457a1.281,1.281,0,0,1,1.281,1.281v9.23a1.367,1.367,0,0,1-1.366,1.366h-6.352a6.76,6.76,0,0,1-6.709-5.939,6.75,6.75,0,0,0,6.709,7.582h12.894a1.281,1.281,0,0,0,1.281-1.281V309.969A1.281,1.281,0,0,0,370.285,308.688Z" transform="translate(-303.82 -266.485)" fill="#ed5729"/>
  <path id="Path_132" data-name="Path 132" d="M69.065,204.271H11.778a3.537,3.537,0,0,0-3.537,3.537v3.876H72.6v-3.876A3.537,3.537,0,0,0,69.065,204.271Z" transform="translate(-8.241 -176.343)" fill="#ff6d3a"/>
  <path id="Path_133" data-name="Path 133" d="M415.43,205.829a3.558,3.558,0,0,0-.432-.523l-.006-.005a3.549,3.549,0,0,0-.518-.426q-.071-.048-.144-.092c-.072-.044-.147-.084-.222-.123q-.073-.038-.149-.072a3.522,3.522,0,0,0-1.462-.317h-6.434a3.537,3.537,0,0,1,3.536,3.537v3.876h6.434v-3.876a3.521,3.521,0,0,0-.427-1.686Q415.526,205.971,415.43,205.829Z" transform="translate(-351.674 -176.343)" fill="#ed5729"/>
  <path id="Path_134" data-name="Path 134" d="M11.778,465.2H69.065A3.537,3.537,0,0,0,72.6,461.66v-3.876H8.241v3.876A3.537,3.537,0,0,0,11.778,465.2Z" transform="translate(-8.241 -395.196)" fill="#ff6d3a"/>
  <path id="Path_135" data-name="Path 135" d="M66.167,457.784v3.882a.6.6,0,0,1-.6.587H11.778a3.537,3.537,0,0,1-3.537-3.537v2.943a3.537,3.537,0,0,0,3.537,3.537H69.065c.07,0,.139,0,.208-.007l.064,0c.048,0,.1-.008.143-.014l.071-.009c.047-.006.094-.014.14-.022l.062-.011c.066-.013.131-.027.2-.044h0l.084-.024a3.532,3.532,0,0,0,.409-.143q.079-.034.157-.071t.152-.078h0q.15-.082.291-.177h0c.08-.054.157-.112.232-.172l.011-.008q.114-.092.22-.194h0q.125-.119.238-.25h0a3.557,3.557,0,0,0,.321-.435l.008-.012c.035-.057.069-.115.1-.174h0a3.513,3.513,0,0,0,.22-.493c.007-.019.013-.039.02-.059q.022-.065.042-.132l.019-.068q.018-.067.034-.135c0-.021.01-.041.014-.062.014-.065.026-.131.037-.2h0c.012-.078.02-.157.027-.236,0-.02,0-.04,0-.06.005-.08.009-.16.009-.242h0v-3.876Z" transform="translate(-8.241 -395.196)" fill="#ed5729"/>
  <circle id="Ellipse_29" data-name="Ellipse 29" cx="3.139" cy="3.139" r="3.139" transform="translate(50.673 45.826)" fill="#f2f2f2"/>
</svg>