<svg xmlns:xlink="http://www.w3.org/1999/xlink" xmlns="http://www.w3.org/2000/svg" id="Money_Bag" data-name="Money Bag" width="55.265" height="65" viewBox="0 0 55.265 65">
  <path id="Path_113" data-name="Path 113" d="M75.477,16.453a3.45,3.45,0,0,1-.566-4.559c2.768-4,7.332-11.358,3.9-11.865-2.367-.349-7.6,2.549-12.834,2.549S55.508-.32,53.141.029c-3.433.507,1.132,7.861,3.9,11.865a3.45,3.45,0,0,1-.566,4.559c-5.718,5.008-19.538,18.631-18.014,32.16C40.376,65.621,65.976,65,65.976,65s25.6.624,27.516-16.385C95.016,35.084,81.2,21.461,75.477,16.453Z" transform="translate(-38.344 0)" fill="#ff4c4c"/>
  <path id="Path_114" data-name="Path 114" d="M244.93,16.454a3.45,3.45,0,0,1-.566-4.559c2.768-4,7.332-11.358,3.9-11.865a4.916,4.916,0,0,0-1.587.1c-1.2,3.061-6.264,8.827-8.3,11.765a3.45,3.45,0,0,0,.566,4.559c5.718,5.008,19.538,18.631,18.014,32.16-1.509,13.4-17.711,15.854-24.524,16.294,1.837.119,2.992.091,2.992.091s25.6.624,27.516-16.385C264.468,35.085,250.648,21.462,244.93,16.454Z" transform="translate(-207.796 -0.001)" fill="#f33939"/>
  <g id="Group_46" data-name="Group 46" transform="translate(13.061 13.016)">
    <circle id="Ellipse_27" data-name="Ellipse 27" cx="14.572" cy="14.572" r="14.572" transform="translate(0 13.007)" fill="#ffb125"/>
    <path id="Path_115" data-name="Path 115" d="M181.841,106.573h-20.5a2.023,2.023,0,0,1-2.023-2.023h0a2.023,2.023,0,0,1,2.023-2.023h20.5a2.023,2.023,0,0,1,2.023,2.023h0A2.023,2.023,0,0,1,181.841,106.573Z" transform="translate(-157.019 -102.526)" fill="#ffb125"/>
  </g>
  <g id="Group_47" data-name="Group 47" transform="translate(15.358 14.148)">
    <path id="Path_116" data-name="Path 116" d="M181.842,112.577h-20.5a2.021,2.021,0,0,1-1.814-1.132,2.02,2.02,0,0,0,1.815,2.914h20.5a2.02,2.02,0,0,0,1.815-2.914A2.022,2.022,0,0,1,181.842,112.577Z" transform="translate(-159.317 -111.445)" fill="#ff901d"/>
    <path id="Path_117" data-name="Path 117" d="M195.446,259.21a14.572,14.572,0,0,0,0-20.607L174.839,259.21A14.572,14.572,0,0,0,195.446,259.21Z" transform="translate(-172.868 -222.46)" fill="#ff901d"/>
  </g>
  <path id="Path_118" data-name="Path 118" d="M220.32,267.183c-2.836-.046-4.756-1.578-4.756-2.7,0-.549.48-1.3,1.052-1.3.755,0,1.372,1.6,3.7,1.784v-5.374c-2.058-.732-4.345-1.555-4.345-4.482,0-2.881,2.172-4.025,4.345-4.253v-.663a.6.6,0,0,1,.663-.526c.343,0,.686.251.686.526v.617c1.555.046,3.75.526,3.75,1.646,0,.434-.32,1.3-1.006,1.3-.549,0-1.143-.732-2.744-.846v4.642c1.989.732,4.162,1.738,4.162,4.848a4.43,4.43,0,0,1-4.162,4.711v.777c0,.274-.343.526-.686.526a.6.6,0,0,1-.663-.526v-.709Zm.137-10.061V252.96c-1.281.16-2.2.732-2.2,1.921C218.262,256.184,219.245,256.664,220.457,257.121Zm1.075,2.973v4.825a2.175,2.175,0,0,0,2.012-2.264C223.544,261.215,222.653,260.574,221.532,260.094Z" transform="translate(-193.065 -217.971)" fill="#dd7219"/>
</svg>