<svg xmlns:xlink="http://www.w3.org/1999/xlink" xmlns="http://www.w3.org/2000/svg" id="Savings" width="61" height="61" viewBox="0 0 61 61">
  <circle id="Ellipse_25" data-name="Ellipse 25" cx="30.5" cy="30.5" r="30.5"/>
  <g id="money_1_" data-name="money (1)" transform="translate(16.267 12.2)">
    <g id="Group_24" data-name="Group 24" transform="translate(0)">
      <path id="Path_53" data-name="Path 53" d="M42.763,16.732A8.366,8.366,0,1,0,34.4,8.363,8.364,8.364,0,0,0,42.763,16.732Zm-2.921-5.061c.076-.277.152-.547.235-.824.1-.318.187-.353.478-.2a4.675,4.675,0,0,0,1.578.471,1.946,1.946,0,0,0,1.032-.138.806.806,0,0,0,.194-1.412,2.526,2.526,0,0,0-.588-.346,13.973,13.973,0,0,1-1.613-.72A2.281,2.281,0,0,1,39.869,6.32,2.4,2.4,0,0,1,41.62,4.1c.429-.159.429-.152.436-.6V3.039c.007-.339.069-.395.4-.408h.312c.72,0,.72,0,.72.72,0,.505,0,.512.505.588a4.492,4.492,0,0,1,1.115.332.332.332,0,0,1,.215.436c-.09.312-.173.623-.277.928s-.187.332-.464.2a3.559,3.559,0,0,0-1.772-.353,1.218,1.218,0,0,0-.471.1.67.67,0,0,0-.166,1.191,2.883,2.883,0,0,0,.768.429,14.139,14.139,0,0,1,1.405.637,2.516,2.516,0,0,1,.81,3.821,2.692,2.692,0,0,1-1.4.893.39.39,0,0,0-.339.443c.014.249,0,.492,0,.741a.307.307,0,0,1-.332.346c-.263.007-.533.007-.8,0a.323.323,0,0,1-.346-.367c0-.18,0-.36-.007-.54-.007-.395-.014-.415-.4-.478a4.836,4.836,0,0,1-1.419-.408C39.779,12.129,39.744,12.039,39.841,11.672Z" transform="translate(-34.4)" fill="#fff"/>
      <path id="Path_54" data-name="Path 54" d="M79.487,121.776h-.976a10.936,10.936,0,0,0-3.586-5.081.935.935,0,0,0-.028-.194,3.934,3.934,0,0,1,.588-3.178.794.794,0,0,0-.768-1.211,5.868,5.868,0,0,0-3.219,1.35,3.128,3.128,0,0,0-.983,1.62,10.066,10.066,0,0,1-15.909,5.628,9.782,9.782,0,0,0-.63,6.424h0a.121.121,0,0,0,.007.035,9.992,9.992,0,0,0,.831,2.208,11.589,11.589,0,0,0,2.125,3.212,6.127,6.127,0,0,1,1.648,3.939v.374h0a.725.725,0,0,0,.72.672h4.375a.719.719,0,0,0,.72-.72v-1.08a15.053,15.053,0,0,0,1.945.132,13.969,13.969,0,0,0,1.53-.083v1.031a.719.719,0,0,0,.72.72h4.389a.719.719,0,0,0,.72-.72v-1.08a4.318,4.318,0,0,1,1.488-3.018l.145-.125c.014-.014.028-.021.042-.035h0a10.827,10.827,0,0,0,3.2-4.887H79.5a1.33,1.33,0,0,0,1.329-1.329v-3.275A1.35,1.35,0,0,0,79.487,121.776Zm-5.476.235a1.087,1.087,0,1,1,1.087-1.087A1.084,1.084,0,0,1,74.011,122.012Z" transform="translate(-52.364 -104.345)" fill="#fff"/>
    </g>
  </g>
</svg>