<svg xmlns="http://www.w3.org/2000/svg" xmlns:xlink="http://www.w3.org/1999/xlink" version="1.1" id="Capa_1" x="0px" y="0px" viewBox="0 0 406.3 406.3" style="enable-background:new 0 0 406.3 406.3;" xml:space="preserve" width="406.3"  height="406.3" >
<style type="text/css">
	.st0{fill:#FFFFFF;}
</style>
<g>
	<g>
		<path class="st0" d="M296.4,23.2C267.7,8,235.6,0,203.1,0C93.1,0,4,89.2,4,199.2C4,251,24.3,300.8,60.4,337.9l-8,59    c-0.7,4.4,2.2,8.5,6.5,9.2c2,0.3,4.1-0.1,5.8-1.2l45.1-29.9c97.2,51.5,217.7,14.5,269.2-82.6S393.5,74.7,296.4,23.2z M333.8,328.4    c-34.6,34.7-81.7,54.1-130.7,53.8c-31.6-0.1-62.6-8.4-90.1-24c-2.5-1.4-5.5-1.4-8,0L70.7,381l6.4-45.4c0.3-2.5-0.5-5-2.3-6.8    C3.2,257.4,3,141.4,74.4,69.8s187.4-71.8,259-0.4S405.2,256.8,333.8,328.4z"/>
	</g>
</g>
<g>
	<g>
		<path class="st0" d="M256.1,239.9c-2.3-1.2-5.1-1.2-7.4,0l-16,8c-3.3,0-20.7-1.9-39.5-38.7c-16-38.6-7.4-53.3-5.5-56l16.6-7.4    c2.4-1.1,4.2-3.2,4.6-5.8c10.8-56-4.3-77.4-18.9-85.6c-5.9-2.9-12.4-4.4-19-4.2c-15.1-0.7-28.9,8.4-34.2,22.5    c-10.2,25.8-22.2,80.6,13.6,156.7s86.5,100.7,113,109c3.5,1.1,7.2,1.7,11,1.7c18-1.1,33-14.3,36.4-32    C313.7,291.9,306.4,266.6,256.1,239.9z M295.1,305.8c-2.2,10-10.5,17.4-20.6,18.4c-2.1,0-4.2-0.3-6.2-1    c-24-7.5-69.6-30.6-104-100.6s-22.5-120.5-13.1-144c3.1-8.1,11.3-13.2,19.9-12.3c3.8-0.1,7.6,0.7,11,2.4    c13.6,8,17.7,30.6,11.8,64.6l-14.8,6.3c-0.7,0.3-1.3,0.7-1.8,1.1c-2.3,1.9-21.8,20,0.8,75.5c22.2,43.4,45.2,48,54.1,48    c1.4,0.2,2.8,0.2,4.2,0c0.6-0.2,1.3-0.4,1.8-0.7l13.8-7.1C282.5,272.8,297.7,290.4,295.1,305.8z"/>
	</g>
</g>
</svg>