<svg xmlns="http://www.w3.org/2000/svg" xmlns:xlink="http://www.w3.org/1999/xlink" version="1.1" id="Capa_1" x="0px" y="0px" viewBox="0 0 433.2 433.2" style="enable-background:new 0 0 433.2 433.2;" xml:space="preserve" width="433.2"  height="433.2" >
<style type="text/css">
	.st0{fill:#FFFFFF;}
</style>
<g>
	<g>
		<path class="st0" d="M418.4,192.3c19.8-19.8,19.8-51.9,0-71.7l-0.1-0.1l-78.6-78.3c-19.8-19.8-51.9-19.7-71.8,0L98.4,211.8    l-54.2,54.1c-19.8,19.7-19.8,51.8-0.1,71.6l48.3,48.3H10c-5.5,0-10,4.5-10,10s4.5,10,10,10h297.4c5.5,0,10-4.5,10-10    s-4.5-10-10-10H225l23.9-23.7L418.4,192.3z M196.7,385.8h-76.1l-62.3-62.4c-12-12-11.9-31.4,0-43.4l47.1-47l122.2,122L196.7,385.8    z M119.6,218.9L282.1,56.4c12-12,31.5-12,43.5,0l78.6,78.4c12,12,12,31.4,0,43.5L241.8,341.1L119.6,218.9z"/>
	</g>
</g>
</svg>