<svg xmlns:xlink="http://www.w3.org/1999/xlink" xmlns="http://www.w3.org/2000/svg" width="24.153" height="16.605" viewBox="0 0 24.153 16.605" class="contact-icon" data-testid="contact-icon-email-test-id"><g data-name="Group 260" transform="translate(16.01 3.061)"><g data-name="Group 259"><path data-name="Path 725" d="M339.392,150.261l8.142,5.148V144.9Z" transform="translate(-339.392 -144.896)" fill="#43A8D0"></path></g></g><g data-name="Group 262" transform="translate(0 3.061)"><g data-name="Group 261"><path data-name="Path 726" d="M0,144.9v10.512l8.142-5.148Z" transform="translate(0 -144.896)" fill="#43A8D0"></path></g></g><g data-name="Group 264" transform="translate(0.045)"><g data-name="Group 263"><path data-name="Path 727" d="M23.558,80H2.424A1.491,1.491,0,0,0,.96,81.285l12.031,7.927,12.031-7.927A1.491,1.491,0,0,0,23.558,80Z" transform="translate(-0.96 -80)" fill="#43A8D0"></path></g></g><g data-name="Group 266" transform="translate(0.048 9.336)"><g data-name="Group 265"><path data-name="Path 728" d="M15.6,277.922l-2.136,1.407a.758.758,0,0,1-.83,0L10.5,277.92l-9.477,5.994a1.488,1.488,0,0,0,1.461,1.274H23.619a1.488,1.488,0,0,0,1.461-1.274Z" transform="translate(-1.024 -277.92)" fill="#43A8D0"></path></g></g></svg>