<svg xmlns:xlink="http://www.w3.org/1999/xlink" class="contact-icon" xmlns="http://www.w3.org/2000/svg" width="21.608" height="21.61" viewBox="0 0 21.608 21.61" data-testid="contact-icon-phone-test-id"><path data-name="Path 724" d="M21.572,16.743q-.092-.276-1.166-.813-.291-.169-.828-.46t-.975-.537q-.438-.246-.821-.476-.061-.046-.384-.269a4.313,4.313,0,0,0-.545-.33,1,1,0,0,0-.437-.107,1.274,1.274,0,0,0-.767.437,7.473,7.473,0,0,0-.844.952,9.253,9.253,0,0,1-.813.951,1.17,1.17,0,0,1-.706.437,1.044,1.044,0,0,1-.345-.077c-.138-.051-.243-.095-.315-.13s-.194-.107-.368-.215-.271-.166-.292-.177a16.128,16.128,0,0,1-3.607-2.67,16.12,16.12,0,0,1-2.67-3.607q-.015-.031-.177-.292T5.3,8.993a3.326,3.326,0,0,1-.13-.315,1.038,1.038,0,0,1-.077-.345,1.17,1.17,0,0,1,.437-.706,9.243,9.243,0,0,1,.951-.813A7.469,7.469,0,0,0,7.43,5.97,1.274,1.274,0,0,0,7.868,5.2a1,1,0,0,0-.107-.437,4.266,4.266,0,0,0-.33-.545q-.223-.322-.269-.384-.23-.383-.476-.821t-.537-.975q-.291-.537-.46-.829Q5.152.138,4.875.046A.86.86,0,0,0,4.553,0,5.056,5.056,0,0,0,3.471.154,6.078,6.078,0,0,0,2.42.476,4.114,4.114,0,0,0,.793,2.348,5.95,5.95,0,0,0,.01,5.2a5.927,5.927,0,0,0,.054.806,6.621,6.621,0,0,0,.192.883q.138.491.222.729t.315.852q.23.614.276.752a13.9,13.9,0,0,0,1.274,2.686,22.756,22.756,0,0,0,3.307,4.06,22.766,22.766,0,0,0,4.059,3.307,13.923,13.923,0,0,0,2.686,1.274q.138.046.752.276t.852.315q.238.085.729.223a6.68,6.68,0,0,0,.883.192,5.693,5.693,0,0,0,3.66-.729A4.112,4.112,0,0,0,21.142,19.2a6.044,6.044,0,0,0,.322-1.051,5.045,5.045,0,0,0,.154-1.082A.856.856,0,0,0,21.572,16.743Z" transform="translate(-0.01)" fill="#43A8D0"></path></svg>