<svg xmlns="http://www.w3.org/2000/svg" xmlns:xlink="http://www.w3.org/1999/xlink" version="1.1" id="Capa_1" x="0px" y="0px" viewBox="0 0 487.4 487.4" style="enable-background:new 0 0 487.4 487.4;" xml:space="preserve" width="487.4"  height="487.4" >
<style type="text/css">
	.st0{fill:#FFFFFF;}
</style>
<g>
	<g>
		<path class="st0" d="M400.1,100.9h-9.9V11.6C390.2,5.2,385,0,378.6,0H108.8c-6.4,0-11.6,5.2-11.6,11.6v89.3h-9.9    c-38.5,0-69.9,31.3-69.9,69.9V315c0,38.5,31.3,69.9,69.9,69.9h9.9v90.8c0,6.4,5.2,11.6,11.6,11.6h269.8c6.4,0,11.6-5.2,11.6-11.6    v-90.8h9.9c38.5,0,69.9-31.3,69.9-69.9V170.8C470,132.3,438.6,100.9,400.1,100.9z M120.4,23.3h246.5v77.6H120.4V23.3z     M366.9,464.1H120.4V320.5h246.5V464.1z M446.7,315c0,25.7-20.9,46.6-46.6,46.6h-9.9v-41.2h25.2c6.4,0,11.6-5.2,11.6-11.6    c0-6.4-5.2-11.6-11.6-11.6h-36.8H108.8H75.4c-6.4,0-11.6,5.2-11.6,11.6c0,6.4,5.2,11.6,11.6,11.6h21.7v41.2h-9.9    c-25.7,0-46.6-20.9-46.6-46.6V170.8c0-25.7,20.9-46.6,46.6-46.6h21.5h269.8h21.5c25.7,0,46.6,20.9,46.6,46.6L446.7,315L446.7,315    L446.7,315z"/>
		<path class="st0" d="M378.6,170.6c-8.8,0-15.9,7.1-15.9,15.9s7.1,15.9,15.9,15.9c8.8,0,15.9-7.1,15.9-15.9    C394.5,177.8,387.4,170.6,378.6,170.6z"/>
		<path class="st0" d="M147.6,360.7h192.1c6.4,0,11.6-5.2,11.6-11.6c0-6.4-5.2-11.6-11.6-11.6H147.6c-6.4,0-11.6,5.2-11.6,11.6    C136,355.5,141.2,360.7,147.6,360.7z"/>
		<path class="st0" d="M147.6,403.9h192.1c6.4,0,11.6-5.2,11.6-11.6c0-6.4-5.2-11.6-11.6-11.6H147.6c-6.4,0-11.6,5.2-11.6,11.6    S141.2,403.9,147.6,403.9z"/>
	</g>
</g>
</svg>