<svg xmlns:xlink="http://www.w3.org/1999/xlink" xmlns="http://www.w3.org/2000/svg" id="PBchart"   width="100"  height="100" ><g transform="translate(60,80)"><g class="axis" transform="translate(0,-235)" font-family="sans-serif" fill="none" font-size="10" text-anchor="middle" style="font-size: 10px;"><path class="domain" stroke="#FFFFFF" d="M0.5,0V0.5H-84.5V0" stroke-opacity="0" fill="none"></path><g class="tick" opacity="1" transform="translate(-11.5,0)" fill="none"><line stroke="#000000" y2="0" fill="none"></line><text fill="#FFFFFF" y="3" dy="0.71em" style="text-transform: uppercase;"><tspan x="0" y="3" dy="0.71em" fill="#FFFFFF">Option 1 - 5.875%</tspan></text></g><g class="tick" opacity="1" transform="translate(-32.5,0)" fill="none"><line stroke="#000000" y2="0" fill="none"></line><text fill="#FFFFFF" y="3" dy="0.71em" style="text-transform: uppercase;"><tspan x="0" y="3" dy="0.71em" fill="#FFFFFF">Option 2 - 6.5%</tspan></text></g><g class="tick" opacity="1" transform="translate(-53.5,0)" fill="none"><line stroke="#000000" y2="0" fill="none"></line><text fill="#FFFFFF" y="3" dy="0.71em" style="text-transform: uppercase;"><tspan x="0" y="3" dy="0.71em" fill="#FFFFFF">Option 3 - 6.75%</tspan></text></g><g class="tick" opacity="1" transform="translate(-74.5,0)" fill="none"><line stroke="#000000" y2="0" fill="none"></line><text fill="#FFFFFF" y="3" dy="0.71em" style="text-transform: uppercase;"><tspan x="0" y="3" dy="0.71em" fill="#FFFFFF">Option 4 - 7.75%</tspan></text></g></g><g class="axis" fill="none" font-size="10" font-family="sans-serif" text-anchor="end" transform="translate(-85, -30)" style="font-size: 10px;"><path class="domain" stroke="#FFFFFF" d="M50,-209.5H0.5V0.5H50" stroke-opacity="0" fill="none"></path><g class="tick" opacity="1" transform="translate(0,-209.5)" fill="none"><line stroke="#717171" x2="50" opacity="0.7" fill="none"></line><text fill="#6A6A6A" x="-3" dy="-0.5em" transform="translate(-10,0)" font-family="MC_font" text-anchor="start" dx="1em">$0</text></g><g class="tick" opacity="1" transform="translate(0,-167.5)" fill="none"><line stroke="#6A6A6A" x2="50" opacity="0.7" fill="none"></line><text fill="#6A6A6A" x="-3" dy="-0.5em" transform="translate(-10,0)" font-family="MC_font" text-anchor="start" dx="1em">$500</text></g><g class="tick" opacity="1" transform="translate(0,-125.5)" fill="none"><line stroke="#6A6A6A" x2="50" opacity="0.7" fill="none"></line><text fill="#6A6A6A" x="-3" dy="-0.5em" transform="translate(-10,0)" font-family="MC_font" text-anchor="start" dx="1em">$1k</text></g><g class="tick" opacity="1" transform="translate(0,-83.5)" fill="none"><line stroke="#6A6A6A" x2="50" opacity="0.7" fill="none"></line><text fill="#6A6A6A" x="-3" dy="-0.5em" transform="translate(-10,0)" font-family="MC_font" text-anchor="start" dx="1em">$2k</text></g><g class="tick" opacity="1" transform="translate(0,-41.5)" fill="none"><line stroke="#6A6A6A" x2="50" opacity="0.7" fill="none"></line><text fill="#6A6A6A" x="-3" dy="-0.5em" transform="translate(-10,0)" font-family="MC_font" text-anchor="start" dx="1em">$2k</text></g><g class="tick" opacity="1" transform="translate(0,0.5)" fill="none"><line stroke="#6A6A6A" x2="50" opacity="0.7" fill="none"></line><text fill="#6A6A6A" x="-3" dy="-0.5em" transform="translate(-10,0)" font-family="MC_font" text-anchor="start" dx="1em">$3k</text></g><text id="PBchart-label" font-family="MC_font" x="2" y="0.5" transform="translate(-25,-7)" dy="-16px" dx="--69px" fill="#FFFFFF" font-size="16px" text-anchor="start" style="text-transform: uppercase;">Payment Breakdown</text></g><g id="Payment-chart"><g fill="#11CCFF" id="PBpaymentField"><rect x="-2" y="-210" height="126" width="10" opacity="0.75" fill="#DD5533" cell-highlight-type="chart" entry-index="0" entry-mapping="Payment" transform="translate(-15, -30)"></rect><rect x="-23" y="-210" height="133" width="10" opacity="0.75" fill="#DD5533" cell-highlight-type="chart" entry-index="1" entry-mapping="Payment" transform="translate(-15, -30)"></rect><rect x="-44" y="-210" height="142" width="10" opacity="0.75" fill="#DD5533" cell-highlight-type="chart" entry-index="2" entry-mapping="Payment" transform="translate(-15, -30)"></rect><rect x="-65" y="-210" height="156" width="10" opacity="0.75" fill="#DD5533" cell-highlight-type="chart" entry-index="3" entry-mapping="Payment" transform="translate(-15, -30)"></rect></g><g fill="#DD5533" id="EscrowAmount"><rect x="-2" y="-84" height="47" width="10" opacity="0.75" fill="#DD5533" cell-highlight-type="chart" entry-index="0" entry-mapping="Payment" transform="translate(-15, -30)"></rect><rect x="-23" y="-77" height="47" width="10" opacity="0.75" fill="#DD5533" cell-highlight-type="chart" entry-index="1" entry-mapping="Payment" transform="translate(-15, -30)"></rect><rect x="-44" y="-68" height="47" width="10" opacity="0.75" fill="#DD5533" cell-highlight-type="chart" entry-index="2" entry-mapping="Payment" transform="translate(-15, -30)"></rect><rect x="-65" y="-54" height="48" width="10" opacity="0.75" fill="#DD5533" cell-highlight-type="chart" entry-index="3" entry-mapping="Payment" transform="translate(-15, -30)"></rect></g><g fill="#7755BB" id="DebtMonthlyPayment"><rect x="-2" y="-37" height="1" width="10" opacity="0.75" fill="#7755BB" cell-highlight-type="chart" entry-index="0" entry-mapping="Payment" transform="translate(-15, -30)"></rect><rect x="-23" y="-30" height="1" width="10" opacity="0.75" fill="#7755BB" cell-highlight-type="chart" entry-index="1" entry-mapping="Payment" transform="translate(-15, -30)"></rect><rect x="-44" y="-21" height="1" width="10" opacity="0.75" fill="#7755BB" cell-highlight-type="chart" entry-index="2" entry-mapping="Payment" transform="translate(-15, -30)"></rect><rect x="-65" y="-6" height="1" width="10" opacity="0.75" fill="#7755BB" cell-highlight-type="chart" entry-index="3" entry-mapping="Payment" transform="translate(-15, -30)"></rect></g><g fill="#EEAA44" id="ReductionPaymentValue"><rect x="-2" y="-37" height="1" width="10" opacity="0.75" fill="#EEAA44" cell-highlight-type="chart" entry-index="0" entry-mapping="Payment" transform="translate(-15, -30)"></rect><rect x="-23" y="-30" height="1" width="10" opacity="0.75" fill="#EEAA44" cell-highlight-type="chart" entry-index="1" entry-mapping="Payment" transform="translate(-15, -30)"></rect><rect x="-44" y="-21" height="1" width="10" opacity="0.75" fill="#EEAA44" cell-highlight-type="chart" entry-index="2" entry-mapping="Payment" transform="translate(-15, -30)"></rect><rect x="-65" y="-6" height="1" width="10" opacity="0.75" fill="#EEAA44" cell-highlight-type="chart" entry-index="3" entry-mapping="Payment" transform="translate(-15, -30)"></rect></g><g fill="#99CC66" id="AccumulationPayment"><rect x="-2" y="-37" height="1" width="10" opacity="0.75" fill="#99CC66" cell-highlight-type="chart" entry-index="0" entry-mapping="Payment" transform="translate(-15, -30)"></rect><rect x="-23" y="-30" height="1" width="10" opacity="0.75" fill="#99CC66" cell-highlight-type="chart" entry-index="1" entry-mapping="Payment" transform="translate(-15, -30)"></rect><rect x="-44" y="-21" height="1" width="10" opacity="0.75" fill="#99CC66" cell-highlight-type="chart" entry-index="2" entry-mapping="Payment" transform="translate(-15, -30)"></rect><rect x="-65" y="-6" height="1" width="10" opacity="0.75" fill="#99CC66" cell-highlight-type="chart" entry-index="3" entry-mapping="Payment" transform="translate(-15, -30)"></rect><text text-anchor="middle" fill="#FFFFFF" text-transform="uppercase" font-family="MC_font" transform="translate(-22, -69)rotate(-30)" font-size="12px" dy="-2px">$2,058.01</text><text text-anchor="middle" fill="#FFFFFF" text-transform="uppercase" font-family="MC_font" transform="translate(-43, -62)rotate(-30)" font-size="12px" dy="-2px">$2,141.06</text><text text-anchor="middle" fill="#FFFFFF" text-transform="uppercase" font-family="MC_font" transform="translate(-64, -53)rotate(-30)" font-size="12px" dy="-2px">$2,247.59</text><text text-anchor="middle" fill="#FFFFFF" text-transform="uppercase" font-family="MC_font" transform="translate(-85, -38)rotate(-30)" font-size="12px" dy="-2px">$2,423.84</text></g></g><g id="legend-PBchart" font-family="MC_font" font-size="12px" text-anchor="end" transform="translate(-21.25,0)"><g><rect width="19" height="19" fill="#11CCFF" transform="translate(0, -185) rotate(0)"></rect><text dy="0.867em" fill="#FFFFFF" transform="translate(-10, -185) rotate(0)"><tspan x="0" dy="0.867em" fill="#FFFFFF"></tspan><tspan x="0" dy="1.117em" fill="#FFFFFF">Payment</tspan></text></g><g><rect width="19" height="19" fill="#DD5533" transform="translate(-42.5, -185) rotate(0)"></rect><text dy="0.867em" fill="#FFFFFF" transform="translate(-52.5, -185) rotate(0)"><tspan x="0" dy="0.867em" fill="#FFFFFF"></tspan><tspan x="0" dy="1.117em" fill="#FFFFFF">Escrows</tspan></text></g><g><rect width="19" height="19" fill="#7755BB" transform="translate(0, -160) rotate(0)"></rect><text dy="0.867em" fill="#FFFFFF" transform="translate(-10, -160) rotate(0)"><tspan x="0" dy="0.867em" fill="#FFFFFF"></tspan><tspan x="0" dy="1.117em" fill="#FFFFFF">Non-Mtg</tspan><tspan x="0" dy="1.367em" fill="#FFFFFF">Debt</tspan></text></g><g><rect width="19" height="19" fill="#EEAA44" transform="translate(-42.5, -160) rotate(0)"></rect><text dy="0.867em" fill="#FFFFFF" transform="translate(-52.5, -160) rotate(0)"><tspan x="0" dy="0.867em" fill="#FFFFFF"></tspan><tspan x="0" dy="1.117em" fill="#FFFFFF">Reduction</tspan><tspan x="0" dy="1.367em" fill="#FFFFFF">Pmt</tspan></text></g><g><rect width="19" height="19" fill="#99CC66" transform="translate(0, -135) rotate(0)"></rect><text dy="0.867em" fill="#FFFFFF" transform="translate(-10, -135) rotate(0)"><tspan x="0" dy="0.867em" fill="#FFFFFF"></tspan><tspan x="0" dy="1.117em" fill="#FFFFFF">Investment</tspan><tspan x="0" dy="1.367em" fill="#FFFFFF">Pmt</tspan></text></g></g></g></svg>