<svg xmlns="http://www.w3.org/2000/svg" xmlns:xlink="http://www.w3.org/1999/xlink" version="1.1" id="Layer_1" x="0px" y="0px" viewBox="0 0 488 488" style="enable-background:new 0 0 488 488;" xml:space="preserve" width="488"  height="488" >
<style type="text/css">
	.st0{fill:#FFFFFF;stroke:#FFFFFF;stroke-miterlimit:10;}
	.st1{font-family:'Hero';}
	.st2{font-size:140px;}
	.st3{fill:#FFFFFF;stroke:#FFFFFF;stroke-width:4;stroke-miterlimit:10;}
</style>
<g transform="translate(0 -540.36)">
	<g>
		<g>
			<path class="st0" d="M486.3,813c-4.8-31.3-20.1-60.3-43.1-81.8c-43.5-40.6-107-49.5-159.4-23.8c-7.9-71-68.1-126.5-141.1-126.5     c-38.1,0-73.9,14.7-100.9,41.5C14.9,649.1,0,685,0,723.2c0,38.1,14.9,73.9,41.9,100.8c26.9,26.8,62.8,41.5,100.9,41.5     c22.1,0,43.1-5.1,61.8-14.2c6.4,58.1,48.1,107.3,105.7,122.5h0.1c11.5,2.8,23,4.2,34.4,4.2c51.3,0,100-27.7,125.5-74.1     C485.5,876.4,491.1,844.1,486.3,813z M142.8,845.5c-67.6,0-122.7-54.8-122.7-122.3c0-67.4,55.1-122.3,122.7-122.3     c67.3,0,122,54.9,122,122.3S210.1,845.5,142.8,845.5z M452.8,894.3c-26.8,48.8-83.3,73.5-137.5,60.1     c-52.5-13.9-89.6-60.6-91.5-114.4c35.2-24.6,58.7-64.7,60.8-110.3c46.5-27.2,105.4-20.9,145,16.2     C470.4,783.9,479.9,844.9,452.8,894.3z"/>
			<path class="st0" d="M193.2,966.2L193.2,966.2c-0.1-0.5-0.2-0.9-0.3-1.2c0,0,0,0,0-0.1c-0.1-0.3-0.2-0.7-0.4-1     c0-0.1-0.1-0.2-0.2-0.3c-0.1-0.2-0.3-0.5-0.4-0.7c-0.1-0.1-0.1-0.2-0.2-0.3c-0.2-0.3-0.4-0.6-0.6-0.9c-0.2-0.3-0.5-0.6-0.8-0.9     c-0.1-0.1-0.1-0.1-0.2-0.2c-0.2-0.2-0.5-0.4-0.7-0.6c-0.1-0.1-0.2-0.1-0.3-0.2c-0.2-0.2-0.5-0.3-0.7-0.5     c-0.1-0.1-0.2-0.1-0.3-0.2c-0.3-0.2-0.7-0.4-1-0.5L136,938c-5.1-2.1-10.9,0.4-13,5.5s0.4,10.9,5.5,13l34.2,13.8     c-18.8,10.1-41.5,10.9-61.2,1.5h-0.1c-24.9-11.5-40.6-36.9-40-64.9c0.1-5.5-4.2-10.1-9.8-10.2c-5.5-0.1-10.1,4.2-10.2,9.8     c-0.9,35.9,19.4,68.6,51.5,83.5c12,5.7,24.8,8.5,37.6,8.5c10.9,0,21.8-2.1,32.1-6.1l-9.1,22.2c-2.1,5.1,0.4,11,5.5,13     c1.2,0.5,2.5,0.7,3.8,0.7c3.9,0,7.7-2.3,9.3-6.2l20.6-50.5c0-0.1,0.1-0.2,0.1-0.3c-0.1-0.1-0.1-0.2,0-0.3     c0.1-0.3,0.2-0.6,0.2-0.8c0-0.1,0-0.2,0.1-0.3c0.1-0.4,0.1-0.8,0.2-1.2c0-0.4,0-0.7,0-1.1c0-0.1,0-0.2,0-0.3     c0-0.3-0.1-0.6-0.1-0.9C193.2,966.3,193.2,966.3,193.2,966.2z"/>
			<path class="st0" d="M295.5,602.6L295.5,602.6c0.1,0.5,0.2,0.9,0.3,1.2c0,0,0,0,0,0.1c0.1,0.3,0.2,0.7,0.4,1     c0,0.1,0.1,0.2,0.2,0.3c0.1,0.2,0.3,0.5,0.4,0.7c0.1,0.1,0.1,0.2,0.2,0.3c0.2,0.3,0.4,0.6,0.6,0.9c0.2,0.3,0.5,0.6,0.8,0.9     c0.1,0.1,0.1,0.1,0.2,0.2c0.2,0.2,0.5,0.4,0.7,0.6c0.1,0.1,0.2,0.1,0.3,0.2c0.2,0.2,0.5,0.3,0.7,0.5c0.1,0.1,0.2,0.1,0.3,0.2     c0.3,0.2,0.7,0.4,1,0.5l51.1,20.6c5.1,2.1,10.9-0.4,13-5.5s-0.4-10.9-5.5-13L326,598.5c18.8-10.1,41.5-10.9,61.2-1.5h0.1     c24.9,11.5,40.6,36.9,40,64.9c-0.1,5.5,4.2,10.1,9.8,10.2c0.1,0,0.2,0,0.2,0c5.4,0,9.9-4.3,10-9.8c0.8-36-19.4-68.8-51.6-83.6     l0,0c-22.3-10.6-47.4-11.1-69.6-2.4l9.1-22.2c2.1-5.1-0.4-11-5.5-13c-5.1-2.1-11,0.4-13,5.5l-20.6,50.5c0,0.1-0.1,0.2-0.1,0.3     s-0.1,0.3-0.1,0.4c-0.1,0.3-0.2,0.6-0.2,0.8c0,0.1,0,0.2-0.1,0.3c-0.1,0.4-0.1,0.8-0.2,1.2c0,0.4,0,0.7,0,1.1c0,0.1,0,0.2,0,0.3     c0,0.3,0.1,0.6,0.1,0.9C295.5,602.5,295.5,602.5,295.5,602.6z"/>
			<text transform="matrix(1 0 0 1 47.3632 764.475)" class="st0 st1 st2">EN</text>
			<text transform="matrix(1 0 0 1 47.3632 764.475)" class="st3 st1 st2">EN</text>
			<text transform="matrix(1 0 0 1 257.3632 886.475)" class="st0 st1 st2">ES</text>
			<text transform="matrix(1 0 0 1 257.3632 886.475)" class="st3 st1 st2">ES</text>
		</g>
	</g>
</g>
</svg>